<svg id="eTnte7LJ4qW1" xmlns="http://www.w3.org/2000/svg" xmlns:xlink="http://www.w3.org/1999/xlink" viewBox="0 0 831 857" shape-rendering="geometricPrecision" text-rendering="geometricPrecision"><path d="M321.35,199.42c-.081,3.394-1.486,6.621-3.916,8.993-2.429,2.371-5.689,3.698-9.084,3.697h-.29l-12.33-.26v2.45c-.25,12.05-4.837,23.606-12.919,32.548s-19.117,14.669-31.081,16.132l-15.55,29.78-33.35-17.42l11.58-22.17c-6.321-4.772-11.418-10.978-14.871-18.107-3.453-7.128-5.163-14.974-4.989-22.893l.61-28.89c.289-13.279,5.839-25.901,15.431-35.089c9.591-9.189,22.439-14.192,35.719-13.911h1c13.28.289,25.901,5.839,35.089,15.431c9.189,9.591,14.192,22.439,13.911,35.719v.5l12.32.26c3.439.074,6.709,1.507,9.093,3.987c2.385,2.48,3.689,5.804,3.627,9.243v0Z" fill="#c0512b"/><g id="eTnte7LJ4qW3" transform="translate(34.254458-14.473219)"><path d="M615,15.08c-22.696,10.8638-43.876,24.6472-63,41-4.85,4-9.43,8.29-14,12.55l-6.74,6.57c-2.24,2.2-4.36,4.51-6.55,6.76-8.62,9.14-16.86,18.62-24.59,28.52s-15,20.09-22,30.54-13.43,21.2-19.65,32.11c-12.329,21.871-23.436,44.409-33.27,67.51-19.8,46.16-35.2,94.1-47.53,142.76-6.14,24.333-11.5,48.847-16.08,73.54-2.3,12.34-4.39,24.71-6.27,37.11-1.86,12.39-3.57,24.86-4.84,37.26-.033.328-.131.647-.288.937-.156.291-.369.548-.625.756-.255.208-.55.365-.866.459-.316.095-.648.126-.976.093-.328-.034-.647-.131-.937-.288-.291-.157-.548-.369-.756-.625-.209-.255-.365-.55-.459-.866-.095-.316-.126-.648-.093-.976v0c1.39-12.6,3.2-25,5.18-37.49s4.19-24.84,6.6-37.2c4.833-24.74,10.413-49.29,16.74-73.65c12.74-48.71,28.62-96.67,48.81-142.83c10.064-23.09,21.395-45.608,33.94-67.45c6.327-10.88,12.993-21.547,20-32s14.45-20.603,22.33-30.45c7.83-9.86,16.18-19.3,24.89-28.38c2.21-2.24,4.36-4.54,6.63-6.73l6.81-6.53c4.66-4.23,9.29-8.49,14.17-12.46C570.867,39.4127,592.186,25.781,615,15.08v0Z" fill="#002"/><path d="M352.5,492.57c0,0,145.83-43.76,49.92-191.38c0,0,134.9-2.19,77-155.41c0,0,115.09,24.8,114.09-119.2l43,795" fill="none" stroke="#002" stroke-width="5" stroke-linecap="round" stroke-miterlimit="10"/></g><path d="M202.847,663.437l61.397,96.41c8.209,12.89,10.961,28.513,7.65,43.432-3.31,14.919-12.411,27.912-25.301,36.121v0l-92.39-145.08l48.601-30.95.043.067Z" fill="#002"/><path d="M413.215,630.13c19.333-12.311,25.025-37.964,12.713-57.296-12.311-19.333-37.964-25.024-57.296-12.713L204.152,664.866c-19.332,12.311-25.024,37.964-12.713,57.296c12.312,19.333,37.964,25.024,57.297,12.713L413.215,630.13Z" fill="#c0512b" stroke="#002" stroke-width="5" stroke-miterlimit="10"/><path d="M349.58,788.4h114.35c15.278,0,29.931,6.068,40.736,16.869c10.806,10.802,16.879,25.453,16.884,40.731v0h-172v-57.6h.03Z" fill="#002"/><path d="M434.49,593.07v195c0,11.007-4.372,21.562-12.155,29.345s-18.339,12.155-29.345,12.155-21.562-4.372-29.345-12.155-12.155-18.338-12.155-29.345v-158.5h-223.49c-10.211,0-20.003-4.056-27.224-11.276-7.2198-7.22-11.276-17.013-11.276-27.224s4.0562-20.003,11.276-27.224c7.221-7.22,17.013-11.276,27.224-11.276c0,0,261.88-1,265-1c11.005.005,21.557,4.379,29.339,12.161s12.156,18.334,12.161,29.339h-.01Z" fill="#c0512b" stroke="#002" stroke-width="5" stroke-miterlimit="10"/><path d="M457,759.07c0,0-114,17-117,17-2,0-1.78-68.44-1.43-118.06L126.67,636.4c-18.646-.772-36.2808-8.688-49.2507-22.106C64.4494,600.875,57.1381,582.982,57,564.32l-1-76.26l193,44l192,12-.91,1.14L457,759.07Z" fill="#fcdbaa"/><path d="M199.99,654.06l72,89l83-57.99-4-60-109-8.01-42,37Z" fill="#fcdbaa"/><path d="M261.014,164.057h-.01c-9.494-.19-17.344,7.352-17.534,16.846l-.107,5.38c-.19,9.494,7.352,17.344,16.846,17.534h.01c9.494.19,17.344-7.352,17.534-16.846l.107-5.38c.19-9.494-7.352-17.344-16.846-17.534Z" fill="#f8fafc"/><path d="M275.941,189.607c.114-5.732-2.989-10.444-6.933-10.522-3.943-.079-7.233,4.504-7.347,10.237-.115,5.732,2.989,10.444,6.932,10.523c3.943.078,7.233-4.505,7.348-10.238Z" fill="#010024"/><path d="M297.8,141.24c-.084,4.029-1.239,7.964-3.347,11.399s-5.093,6.247-8.647,8.147c-3.555,1.9-7.551,2.819-11.578,2.664-4.028-.156-7.941-1.381-11.338-3.55-1.355,1.619-3.104,2.863-5.079,3.612-1.974.749-4.108.978-6.196.665-2.089-.313-4.062-1.158-5.73-2.454-1.668-1.295-2.974-2.997-3.795-4.943-1.146,2.387-2.837,4.471-4.937,6.083-2.101,1.612-4.551,2.707-7.153,3.197-1.196,6.299-4.196,12.115-8.633,16.743-4.438,4.628-10.124,7.868-16.367,9.327-.446,2.679-1.352,5.261-2.68,7.63c1.945,2.872,3.186,6.162,3.621,9.604.436,3.441.053,6.937-1.116,10.203-1.169,3.265-3.092,6.21-5.612,8.593s-5.567,4.139-8.893,5.124-6.838,1.172-10.25.545c-3.411-.627-6.627-2.049-9.386-4.152s-4.983-4.826-6.492-7.95c-1.509-3.123-2.26-6.559-2.192-10.027.056-2.577.557-5.124,1.48-7.53-2.157-2.394-3.811-5.198-4.861-8.245s-1.476-6.274-1.252-9.489c.224-3.216,1.093-6.353,2.556-9.224c1.462-2.872,3.488-5.42,5.957-7.492-1.556-5.009-1.899-10.317-1.001-15.484.899-5.168,3.012-10.049,6.166-14.239c3.155-4.191,7.26-7.572,11.978-9.865s9.913-3.431,15.157-3.322c.88,0,1.76.07,2.62.16c0-.25,0-.5,0-.76.068-3.342,1.167-6.581,3.147-9.274s4.745-4.708,7.915-5.769c3.169-1.061,6.59-1.116,9.792-.158s6.03,2.883,8.096,5.511c2.88-1.545,6.084-2.388,9.351-2.459c3.267-.072,6.505.631,9.449,2.049.557-2.999,2.207-5.684,4.631-7.537c2.423-1.852,5.447-2.74,8.487-2.491s5.879,1.617,7.969,3.839s3.281,5.14,3.343,8.189c3.187-.295,6.401.087,9.431,1.119s5.808,2.692,8.152,4.871c2.345,2.18,4.203,4.829,5.453,7.776c1.251,2.946,1.865,6.124,1.804,9.324l-.02.04Z" fill="#010024"/><path d="M218.18,203.81c9.676,0,17.52-7.844,17.52-17.52s-7.844-17.52-17.52-17.52-17.52,7.844-17.52,17.52s7.844,17.52,17.52,17.52Z" fill="#c0512b"/><path d="M280.66,221c-.123,4.887-2.179,9.525-5.716,12.899s-8.267,5.208-13.154,5.101c-4.902-.102-9.563-2.148-12.958-5.687-3.394-3.538-5.244-8.281-5.142-13.183" fill="none" stroke="#010024" stroke-width="5" stroke-linecap="round" stroke-miterlimit="10"/><path d="M241.5,281.56l10.33-19.42c0,0,39.27-.5,44.23-50.55h13.61c3.383,0,6.634-1.312,9.07-3.66c2.435-2.348,3.866-5.549,3.99-8.93v0c.059-1.752-.235-3.497-.865-5.133s-1.582-3.128-2.801-4.388c-1.219-1.259-2.679-2.261-4.292-2.944-1.614-.684-3.349-1.036-5.102-1.035h-13.08c0,0,.89-26.59-17.73-36.34" fill="none" stroke="#002" stroke-width="5" stroke-linecap="round" stroke-miterlimit="10"/><path d="M208.51,266.56l6.67-12.85c0,0-15.08-10.06-19.8-35.38" fill="none" stroke="#010024" stroke-width="5" stroke-linecap="round" stroke-miterlimit="10"/><path d="M62.5,508.56l1.26,22.77c-.0013,13.753,2.7064,27.371,7.9685,40.078c5.262,12.706,12.9755,24.252,22.6997,33.977c9.7248,9.725,21.2688,17.439,33.9748,22.703c12.706,5.263,26.324,7.972,40.077,7.972h178.52c0,0,1,129,0,130s96-20,96-20" fill="none" stroke="#002" stroke-width="5" stroke-linecap="round" stroke-miterlimit="10"/><path d="M139.49,551.56c0,0,6,12-11,25" fill="none" stroke="#002" stroke-width="5" stroke-linecap="round" stroke-miterlimit="10"/><path d="M353.53,731.37l90.96-14.8" fill="none" stroke="#002" stroke-width="5" stroke-linecap="round" stroke-miterlimit="10"/><path d="M341.49,639.57l-96,57.99" fill="none" stroke="#002" stroke-width="5" stroke-linecap="round" stroke-miterlimit="10"/><path d="M203.83,655.45l67.66,87.11l22.16-15.47-24.16-38.53" fill="none" stroke="#002" stroke-width="5" stroke-linecap="round" stroke-miterlimit="10"/><path d="M260,835c-1.506.464-3.089.626-4.658.478s-3.094-.604-4.487-1.341-2.627-1.742-3.631-2.956c-1.005-1.214-1.761-2.615-2.224-4.121l-48.11-156.5h-36.89v156.64c0,3.183-1.264,6.235-3.515,8.485-2.25,2.251-5.302,3.515-8.485,3.515s-6.235-1.264-8.485-3.515c-2.251-2.25-3.515-5.302-3.515-8.485v-156.64h-28.93L58.9399,827.05c-.9582,3.014-3.0674,5.528-5.869,6.995s-6.0691,1.769-9.092.84c-3.023-.929-5.557-3.014-7.0511-5.801-1.4941-2.788-1.8276-6.052-.9279-9.084l46-149.44h-4c-4.9065,0-9.612-1.949-13.0814-5.418-3.4695-3.47-5.4186-8.175-5.4186-13.082c0-4.906,1.9491-9.612,5.4186-13.081c3.4694-3.47,8.1749-5.419,13.0814-5.419h162.0001c4.906,0,9.612,1.949,13.081,5.419c3.47,3.469,5.419,8.175,5.419,13.081c0,4.907-1.949,9.612-5.419,13.082-3.469,3.469-8.175,5.418-13.081,5.418h-18L267.9,820c.938,3.037.633,6.322-.848,9.134s-4.017,4.922-7.052,5.866Z" fill="#fbd206"/><path d="M75.11,675.33c-4.3529-.686-8.3179-2.903-11.1815-6.252-2.8635-3.35-4.4374-7.611-4.4385-12.018v0c0-2.43.4788-4.837,1.4092-7.082s2.2939-4.285,4.0128-6.003s3.7596-3.08,6.0053-4.01c2.2456-.929,4.6524-1.406,7.0827-1.405h162c4.906,0,9.612,1.949,13.081,5.419c3.47,3.469,5.419,8.175,5.419,13.081v0c0,4.907-1.949,9.612-5.419,13.082-3.469,3.469-8.175,5.418-13.081,5.418h-162c-.9646,0-1.9276-.077-2.88-.23" fill="none" stroke="#002" stroke-width="5" stroke-linecap="round" stroke-miterlimit="10"/><path d="M328.59,121.49c-22.75-4.34-28.16,6.5-45.5,7.57s-9.75,20.58-21.66,21.67-28.17,0-43.22,9.42-20.7,25.24-39.38,26.26-47.4,33.65-47.4,33.65l21-64.07l1.35-4.13-.78-22.28-1-25.44l87.75-40.0799l20.93,18.44l14.22,12.5l8,3.94L328.59,121.49Z" fill="#1a5ffe"/><path d="M282.92,98.97l-2.37,1.04-126.59,55.33-1.48.65.5-26.41L260.68,82.5L274.9,95.03l8.02,3.94Z" fill="#fbd206"/><path d="M280.92,93.97l-2.37,1.04-126.59,55.33-1.48.65l1.35-4.13-.85-22.28L258.68,77.5L272.9,90.03l8.02,3.94Z" fill="none" stroke="#002" stroke-width="5" stroke-linecap="round" stroke-miterlimit="10"/><path d="M326.59,114.49c-22.75-4.34-28.16,6.5-45.5,7.57s-9.75,20.58-21.66,21.67-28.17,0-43.22,9.42-20.7,25.24-39.38,26.26-47.4,33.65-47.4,33.65l21-64.07l1.35-4.13-.78-22.28-1-25.4399l87.75-40.08l20.93,18.44l14.22,12.5l8,3.94L326.59,114.49Z" fill="none" stroke="#00001d" stroke-width="5" stroke-miterlimit="10"/><path d="M665.98,845.08c73.454,0,133-4.477,133-10s-59.546-10-133-10-133,4.477-133,10s59.546,10,133,10Z" fill="#002"/><path d="M277.89,563.54L42,498.06L187.2,259.7l64.92,26.82l25.77,277.02Z" fill="#1a5ffe"/><path d="M275.95,563.35L51.5,492.56L191.55,260.85l58.95,25.71l14.09,129.09" fill="none" stroke="#002" stroke-width="5" stroke-linecap="round" stroke-miterlimit="10"/><path d="M141,675.76v151.44c0,3.183,1.264,6.235,3.515,8.485c2.25,2.251,5.302,3.515,8.485,3.515s6.235-1.264,8.485-3.515c2.251-2.25,3.515-5.302,3.515-8.485v-150.37" fill="none" stroke="#002" stroke-width="5" stroke-linecap="round" stroke-miterlimit="10"/><path d="M99.06,677.08l-46.12,150c-.9408,3.025-3.0393,5.555-5.838,7.038-2.7988,1.484-6.0706,1.801-9.102.882-1.5117-.457-2.9183-1.209-4.1392-2.211-1.2208-1.002-2.2318-2.235-2.975-3.628-.7433-1.394-1.2041-2.92-1.3561-4.492s.0078-3.159.4703-4.669L74.16,676.38" fill="none" stroke="#002" stroke-width="5" stroke-linecap="round" stroke-miterlimit="10"/><path d="M191.24,675.08l46.72,152c.465,1.509,1.224,2.911,2.232,4.127c1.008,1.215,2.247,2.219,3.644,2.955s2.926,1.189,4.498,1.332c1.573.144,3.158-.024,4.666-.494v0c1.506-.463,2.907-1.219,4.121-2.224c1.214-1.004,2.219-2.238,2.956-3.631s1.193-2.918,1.341-4.487-.014-3.152-.478-4.658L217.49,676.56" fill="none" stroke="#002" stroke-width="5" stroke-linecap="round" stroke-miterlimit="10"/><g id="eTnte7LJ4qW36" transform="matrix(.986219 0.165447-.165447 0.986219 54.457391-28.892802)"><path d="M374.35,421.02l41.18,4.68-6.32,12.85-62.47-5.8-.02-.05-15.88,5.52-56.12,19.52-11.75-33.75l70.14-24.4l17.18-26.66l10.38,4.98-7.58,11.44l45.7-27.3l4.55,9.03-33.27,23.98l42.89-15.94l4.28,14.03-42.82,14.69l45.59-7.64l5.01,12.19-50.67,8.63Z" fill="#c0512b"/><path d="M352.23,371.71l8.94,6.25-6.29,9.66l46.02-24.91l2.33,7.92-31.08,23.29l43.06-14.85l3.9,12.92-43.43,14.79l46.37-5.87l1.84,9.9-47.67,8.96l39.26,6.62-4.51,10.97-62.36-7.45-14.78,5.61-9.39-33.64l12.39-2.71l15.4-27.46Z" fill="none" stroke="#002" stroke-width="5" stroke-linecap="round" stroke-linejoin="round"/><path d="M144.28,504.34L138,461.06l183-65l16,50-113.55,61.48c-5.407,4.992-11.744,8.869-18.65,11.41-6.906,2.54-14.246,3.695-21.598,3.398-7.353-.297-14.575-2.041-21.253-5.13-6.679-3.09-12.683-7.466-17.669-12.878v0Z" fill="#1a5ffe"/><path d="M175.54,306.46L141.6,425.26c-4.39,15.39-4.38,34.17-.79,49.6c6.4,27.46,40.68,50.55,68.23,38.48c11-4.79,111.9-58,125.46-69.77l-14-48-123.44,43l52.44-147" fill="none" stroke="#002" stroke-width="5" stroke-linecap="round" stroke-miterlimit="10"/></g><script><![CDATA[!function(t,n){"object"==typeof exports&&"undefined"!=typeof module?module.exports=n():"function"==typeof define&&define.amd?define(n):((t="undefined"!=typeof globalThis?globalThis:t||self).__SVGATOR_PLAYER__=t.__SVGATOR_PLAYER__||{},t.__SVGATOR_PLAYER__["5c7f360c"]=n())}(this,(function(){"use strict";function t(t,n){var e=Object.keys(t);if(Object.getOwnPropertySymbols){var r=Object.getOwnPropertySymbols(t);n&&(r=r.filter((function(n){return Object.getOwnPropertyDescriptor(t,n).enumerable}))),e.push.apply(e,r)}return e}function n(n){for(var e=1;e<arguments.length;e++){var r=null!=arguments[e]?arguments[e]:{};e%2?t(Object(r),!0).forEach((function(t){o(n,t,r[t])})):Object.getOwnPropertyDescriptors?Object.defineProperties(n,Object.getOwnPropertyDescriptors(r)):t(Object(r)).forEach((function(t){Object.defineProperty(n,t,Object.getOwnPropertyDescriptor(r,t))}))}return n}function e(t){return(e="function"==typeof Symbol&&"symbol"==typeof Symbol.iterator?function(t){return typeof t}:function(t){return t&&"function"==typeof Symbol&&t.constructor===Symbol&&t!==Symbol.prototype?"symbol":typeof t})(t)}function r(t,n){if(!(t instanceof n))throw new TypeError("Cannot call a class as a function")}function i(t,n){for(var e=0;e<n.length;e++){var r=n[e];r.enumerable=r.enumerable||!1,r.configurable=!0,"value"in r&&(r.writable=!0),Object.defineProperty(t,r.key,r)}}function u(t,n,e){return n&&i(t.prototype,n),e&&i(t,e),t}function o(t,n,e){return n in t?Object.defineProperty(t,n,{value:e,enumerable:!0,configurable:!0,writable:!0}):t[n]=e,t}function a(t){return(a=Object.setPrototypeOf?Object.getPrototypeOf:function(t){return t.__proto__||Object.getPrototypeOf(t)})(t)}function l(t,n){return(l=Object.setPrototypeOf||function(t,n){return t.__proto__=n,t})(t,n)}function s(){if("undefined"==typeof Reflect||!Reflect.construct)return!1;if(Reflect.construct.sham)return!1;if("function"==typeof Proxy)return!0;try{return Boolean.prototype.valueOf.call(Reflect.construct(Boolean,[],(function(){}))),!0}catch(t){return!1}}function f(t,n,e){return(f=s()?Reflect.construct:function(t,n,e){var r=[null];r.push.apply(r,n);var i=new(Function.bind.apply(t,r));return e&&l(i,e.prototype),i}).apply(null,arguments)}function c(t,n){if(n&&("object"==typeof n||"function"==typeof n))return n;if(void 0!==n)throw new TypeError("Derived constructors may only return object or undefined");return function(t){if(void 0===t)throw new ReferenceError("this hasn't been initialised - super() hasn't been called");return t}(t)}function h(t,n,e){return(h="undefined"!=typeof Reflect&&Reflect.get?Reflect.get:function(t,n,e){var r=function(t,n){for(;!Object.prototype.hasOwnProperty.call(t,n)&&null!==(t=a(t)););return t}(t,n);if(r){var i=Object.getOwnPropertyDescriptor(r,n);return i.get?i.get.call(e):i.value}})(t,n,e||t)}function v(t){return function(t){if(Array.isArray(t))return y(t)}(t)||function(t){if("undefined"!=typeof Symbol&&null!=t[Symbol.iterator]||null!=t["@@iterator"])return Array.from(t)}(t)||function(t,n){if(!t)return;if("string"==typeof t)return y(t,n);var e=Object.prototype.toString.call(t).slice(8,-1);"Object"===e&&t.constructor&&(e=t.constructor.name);if("Map"===e||"Set"===e)return Array.from(t);if("Arguments"===e||/^(?:Ui|I)nt(?:8|16|32)(?:Clamped)?Array$/.test(e))return y(t,n)}(t)||function(){throw new TypeError("Invalid attempt to spread non-iterable instance.\nIn order to be iterable, non-array objects must have a [Symbol.iterator]() method.")}()}function y(t,n){(null==n||n>t.length)&&(n=t.length);for(var e=0,r=new Array(n);e<n;e++)r[e]=t[e];return r}Number.isInteger||(Number.isInteger=function(t){return"number"==typeof t&&isFinite(t)&&Math.floor(t)===t}),Number.EPSILON||(Number.EPSILON=2220446049250313e-31);var g=d(Math.pow(10,-6));function d(t){var n=arguments.length>1&&void 0!==arguments[1]?arguments[1]:6;if(Number.isInteger(t))return t;var e=Math.pow(10,n);return Math.round((+t+Number.EPSILON)*e)/e}function p(t,n){var e=arguments.length>2&&void 0!==arguments[2]?arguments[2]:g;return Math.abs(t-n)<e}var m=Math.PI/180;function b(t){return t}function w(t,n,e){var r=1-e;return 3*e*r*(t*r+n*e)+e*e*e}function x(){var t=arguments.length>0&&void 0!==arguments[0]?arguments[0]:0,n=arguments.length>1&&void 0!==arguments[1]?arguments[1]:0,e=arguments.length>2&&void 0!==arguments[2]?arguments[2]:1,r=arguments.length>3&&void 0!==arguments[3]?arguments[3]:1;return t<0||t>1||e<0||e>1?null:p(t,n)&&p(e,r)?b:function(i){if(i<=0)return t>0?i*n/t:0===n&&e>0?i*r/e:0;if(i>=1)return e<1?1+(i-1)*(r-1)/(e-1):1===e&&t<1?1+(i-1)*(n-1)/(t-1):1;for(var u,o=0,a=1;o<a;){var l=w(t,e,u=(o+a)/2);if(p(i,l))break;l<i?o=u:a=u}return w(n,r,u)}}function A(){return 1}function k(t){return 1===t?1:0}function _(){var t=arguments.length>0&&void 0!==arguments[0]?arguments[0]:1,n=arguments.length>1&&void 0!==arguments[1]?arguments[1]:0;if(1===t){if(0===n)return k;if(1===n)return A}var e=1/t;return function(t){return t>=1?1:(t+=n*e)-t%e}}var S=Math.sin,O=Math.cos,j=Math.acos,M=Math.asin,P=Math.tan,E=Math.atan2,I=Math.PI/180,R=180/Math.PI,F=Math.sqrt,N=function(){function t(){var n=arguments.length>0&&void 0!==arguments[0]?arguments[0]:1,e=arguments.length>1&&void 0!==arguments[1]?arguments[1]:0,i=arguments.length>2&&void 0!==arguments[2]?arguments[2]:0,u=arguments.length>3&&void 0!==arguments[3]?arguments[3]:1,o=arguments.length>4&&void 0!==arguments[4]?arguments[4]:0,a=arguments.length>5&&void 0!==arguments[5]?arguments[5]:0;r(this,t),this.m=[n,e,i,u,o,a],this.i=null,this.w=null,this.s=null}return u(t,[{key:"determinant",get:function(){var t=this.m;return t[0]*t[3]-t[1]*t[2]}},{key:"isIdentity",get:function(){if(null===this.i){var t=this.m;this.i=1===t[0]&&0===t[1]&&0===t[2]&&1===t[3]&&0===t[4]&&0===t[5]}return this.i}},{key:"point",value:function(t,n){var e=this.m;return{x:e[0]*t+e[2]*n+e[4],y:e[1]*t+e[3]*n+e[5]}}},{key:"translateSelf",value:function(){var t=arguments.length>0&&void 0!==arguments[0]?arguments[0]:0,n=arguments.length>1&&void 0!==arguments[1]?arguments[1]:0;if(!t&&!n)return this;var e=this.m;return e[4]+=e[0]*t+e[2]*n,e[5]+=e[1]*t+e[3]*n,this.w=this.s=this.i=null,this}},{key:"rotateSelf",value:function(){var t=arguments.length>0&&void 0!==arguments[0]?arguments[0]:0;if(t%=360){var n=S(t*=I),e=O(t),r=this.m,i=r[0],u=r[1];r[0]=i*e+r[2]*n,r[1]=u*e+r[3]*n,r[2]=r[2]*e-i*n,r[3]=r[3]*e-u*n,this.w=this.s=this.i=null}return this}},{key:"scaleSelf",value:function(){var t=arguments.length>0&&void 0!==arguments[0]?arguments[0]:1,n=arguments.length>1&&void 0!==arguments[1]?arguments[1]:1;if(1!==t||1!==n){var e=this.m;e[0]*=t,e[1]*=t,e[2]*=n,e[3]*=n,this.w=this.s=this.i=null}return this}},{key:"skewSelf",value:function(t,n){if(n%=360,(t%=360)||n){var e=this.m,r=e[0],i=e[1],u=e[2],o=e[3];t&&(t=P(t*I),e[2]+=r*t,e[3]+=i*t),n&&(n=P(n*I),e[0]+=u*n,e[1]+=o*n),this.w=this.s=this.i=null}return this}},{key:"resetSelf",value:function(){var t=arguments.length>0&&void 0!==arguments[0]?arguments[0]:1,n=arguments.length>1&&void 0!==arguments[1]?arguments[1]:0,e=arguments.length>2&&void 0!==arguments[2]?arguments[2]:0,r=arguments.length>3&&void 0!==arguments[3]?arguments[3]:1,i=arguments.length>4&&void 0!==arguments[4]?arguments[4]:0,u=arguments.length>5&&void 0!==arguments[5]?arguments[5]:0,o=this.m;return o[0]=t,o[1]=n,o[2]=e,o[3]=r,o[4]=i,o[5]=u,this.w=this.s=this.i=null,this}},{key:"recomposeSelf",value:function(){var t=arguments.length>0&&void 0!==arguments[0]?arguments[0]:null,n=arguments.length>1&&void 0!==arguments[1]?arguments[1]:null,e=arguments.length>2&&void 0!==arguments[2]?arguments[2]:null,r=arguments.length>3&&void 0!==arguments[3]?arguments[3]:null,i=arguments.length>4&&void 0!==arguments[4]?arguments[4]:null;return this.isIdentity||this.resetSelf(),t&&(t.x||t.y)&&this.translateSelf(t.x,t.y),n&&this.rotateSelf(n),e&&(e.x&&this.skewSelf(e.x,0),e.y&&this.skewSelf(0,e.y)),!r||1===r.x&&1===r.y||this.scaleSelf(r.x,r.y),i&&(i.x||i.y)&&this.translateSelf(i.x,i.y),this}},{key:"decompose",value:function(){var t=arguments.length>0&&void 0!==arguments[0]?arguments[0]:0,n=arguments.length>1&&void 0!==arguments[1]?arguments[1]:0,e=this.m,r=e[0]*e[0]+e[1]*e[1],i=[[e[0],e[1]],[e[2],e[3]]],u=F(r);if(0===u)return{origin:{x:d(e[4]),y:d(e[5])},translate:{x:d(t),y:d(n)},scale:{x:0,y:0},skew:{x:0,y:0},rotate:0};i[0][0]/=u,i[0][1]/=u;var o=e[0]*e[3]-e[1]*e[2]<0;o&&(u=-u);var a=i[0][0]*i[1][0]+i[0][1]*i[1][1];i[1][0]-=i[0][0]*a,i[1][1]-=i[0][1]*a;var l=F(i[1][0]*i[1][0]+i[1][1]*i[1][1]);if(0===l)return{origin:{x:d(e[4]),y:d(e[5])},translate:{x:d(t),y:d(n)},scale:{x:d(u),y:0},skew:{x:0,y:0},rotate:0};i[1][0]/=l,i[1][1]/=l,a/=l;var s=0;return i[1][1]<0?(s=j(i[1][1])*R,i[0][1]<0&&(s=360-s)):s=M(i[0][1])*R,o&&(s=-s),a=E(a,F(i[0][0]*i[0][0]+i[0][1]*i[0][1]))*R,o&&(a=-a),{origin:{x:d(e[4]),y:d(e[5])},translate:{x:d(t),y:d(n)},scale:{x:d(u),y:d(l)},skew:{x:d(a),y:0},rotate:d(s)}}},{key:"clone",value:function(){var t=this.m;return new this.constructor(t[0],t[1],t[2],t[3],t[4],t[5])}},{key:"toString",value:function(){var t=arguments.length>0&&void 0!==arguments[0]?arguments[0]:" ";if(null===this.s){var n=this.m.map((function(t){return d(t)}));1===n[0]&&0===n[1]&&0===n[2]&&1===n[3]?this.s="translate("+n[4]+t+n[5]+")":this.s="matrix("+n.join(t)+")"}return this.s}}],[{key:"create",value:function(t){return t?Array.isArray(t)?f(this,v(t)):t instanceof this?t.clone():(new this).recomposeSelf(t.origin,t.rotate,t.skew,t.scale,t.translate):new this}}]),t}();function T(t,n,e){return t>=.5?e:n}function q(t,n,e){return 0===t||n===e?n:t*(e-n)+n}function B(t,n,e){var r=q(t,n,e);return r<=0?0:r}function L(t,n,e){var r=q(t,n,e);return r<=0?0:r>=1?1:r}function C(t,n,e){return 0===t?n:1===t?e:{x:q(t,n.x,e.x),y:q(t,n.y,e.y)}}function D(t,n,e){var r=function(t,n,e){return Math.round(q(t,n,e))}(t,n,e);return r<=0?0:r>=255?255:r}function z(t,n,e){return 0===t?n:1===t?e:{r:D(t,n.r,e.r),g:D(t,n.g,e.g),b:D(t,n.b,e.b),a:q(t,null==n.a?1:n.a,null==e.a?1:e.a)}}function V(t,n){for(var e=[],r=0;r<t;r++)e.push(n);return e}function G(t,n){if(--n<=0)return t;var e=(t=Object.assign([],t)).length;do{for(var r=0;r<e;r++)t.push(t[r])}while(--n>0);return t}var Y,$=function(){function t(n){r(this,t),this.list=n,this.length=n.length}return u(t,[{key:"setAttribute",value:function(t,n){for(var e=this.list,r=0;r<this.length;r++)e[r].setAttribute(t,n)}},{key:"removeAttribute",value:function(t){for(var n=this.list,e=0;e<this.length;e++)n[e].removeAttribute(t)}},{key:"style",value:function(t,n){for(var e=this.list,r=0;r<this.length;r++)e[r].style[t]=n}}]),t}(),U=/-./g,Q=function(t,n){return n.toUpperCase()};function H(t){return"function"==typeof t?t:T}function J(t){return t?"function"==typeof t?t:Array.isArray(t)?function(t){var n=arguments.length>1&&void 0!==arguments[1]?arguments[1]:b;if(!Array.isArray(t))return n;switch(t.length){case 1:return _(t[0])||n;case 2:return _(t[0],t[1])||n;case 4:return x(t[0],t[1],t[2],t[3])||n}return n}(t,null):function(t,n){var e=arguments.length>2&&void 0!==arguments[2]?arguments[2]:b;switch(t){case"linear":return b;case"steps":return _(n.steps||1,n.jump||0)||e;case"bezier":case"cubic-bezier":return x(n.x1||0,n.y1||0,n.x2||0,n.y2||0)||e}return e}(t.type,t.value,null):null}function Z(t,n,e){var r=arguments.length>3&&void 0!==arguments[3]&&arguments[3],i=n.length-1;if(t<=n[0].t)return r?[0,0,n[0].v]:n[0].v;if(t>=n[i].t)return r?[i,1,n[i].v]:n[i].v;var u,o=n[0],a=null;for(u=1;u<=i;u++){if(!(t>n[u].t)){a=n[u];break}o=n[u]}return null==a?r?[i,1,n[i].v]:n[i].v:o.t===a.t?r?[u,1,a.v]:a.v:(t=(t-o.t)/(a.t-o.t),o.e&&(t=o.e(t)),r?[u,t,e(t,o.v,a.v)]:e(t,o.v,a.v))}function K(t,n){var e=arguments.length>2&&void 0!==arguments[2]?arguments[2]:null;return t&&t.length?"function"!=typeof n?null:("function"!=typeof e&&(e=null),function(r){var i=Z(r,t,n);return null!=i&&e&&(i=e(i)),i}):null}function W(t,n){return t.t-n.t}function X(t,n,r,i,u){var o,a="@"===r[0],l="#"===r[0],s=Y[r],f=T;switch(a?(o=r.substr(1),r=o.replace(U,Q)):l&&(r=r.substr(1)),e(s)){case"function":if(f=s(i,u,Z,J,r,a,n,t),l)return f;break;case"string":f=K(i,H(s));break;case"object":if((f=K(i,H(s.i),s.f))&&"function"==typeof s.u)return s.u(n,f,r,a,t)}return f?function(t,n,e){if(arguments.length>3&&void 0!==arguments[3]&&arguments[3])return t instanceof $?function(r){return t.style(n,e(r))}:function(r){return t.style[n]=e(r)};if(Array.isArray(n)){var r=n.length;return function(i){var u=e(i);if(null==u)for(var o=0;o<r;o++)t[o].removeAttribute(n);else for(var a=0;a<r;a++)t[a].setAttribute(n,u)}}return function(r){var i=e(r);null==i?t.removeAttribute(n):t.setAttribute(n,i)}}(n,r,f,a):null}function tt(t,n,r,i){if(!i||"object"!==e(i))return null;var u=null,o=null;return Array.isArray(i)?o=function(t){if(!t||!t.length)return null;for(var n=0;n<t.length;n++)t[n].e&&(t[n].e=J(t[n].e));return t.sort(W)}(i):(o=i.keys,u=i.data||null),o?X(t,n,r,o,u):null}function nt(t,n,e){if(!e)return null;var r=[];for(var i in e)if(e.hasOwnProperty(i)){var u=tt(t,n,i,e[i]);u&&r.push(u)}return r.length?r:null}function et(t,n){if(!n.settings.duration||n.settings.duration<0)return null;var e,r,i,u,o,a=function(t,n){if(!n)return null;var e=[];if(Array.isArray(n))for(var r=n.length,i=0;i<r;i++){var u=n[i];if(2===u.length){var o=null;if("string"==typeof u[0])o=t.getElementById(u[0]);else if(Array.isArray(u[0])){o=[];for(var a=0;a<u[0].length;a++)if("string"==typeof u[0][a]){var l=t.getElementById(u[0][a]);l&&o.push(l)}o=o.length?1===o.length?o[0]:new $(o):null}if(o){var s=nt(t,o,u[1]);s&&(e=e.concat(s))}}}else for(var f in n)if(n.hasOwnProperty(f)){var c=t.getElementById(f);if(c){var h=nt(t,c,n[f]);h&&(e=e.concat(h))}}return e.length?e:null}(t,n.elements);return a?(e=a,r=n.settings,i=r.duration,u=e.length,o=null,function(t,n){var a=r.iterations||1/0,l=(r.alternate&&a%2==0)^r.direction>0?i:0,s=t%i,f=1+(t-s)/i;n*=r.direction,r.alternate&&f%2==0&&(n=-n);var c=!1;if(f>a)s=l,c=!0,-1===r.fill&&(s=r.direction>0?0:i);else if(n<0&&(s=i-s),s===o)return!1;o=s;for(var h=0;h<u;h++)e[h](s);return c}):null}function rt(t,n){if(Y=n,!t||!t.root||!Array.isArray(t.animations))return null;var e=function(t){for(var n=document.getElementsByTagName("svg"),e=0;e<n.length;e++)if(n[e].id===t.root&&!n[e].svgatorAnimation)return n[e].svgatorAnimation=!0,n[e];return null}(t);if(!e)return null;var r=t.animations.map((function(t){return et(e,t)})).filter((function(t){return!!t}));return r.length?{svg:e,animations:r,animationSettings:t.animationSettings,options:t.options||void 0}:null}function it(t){return+("0x"+(t.replace(/[^0-9a-fA-F]+/g,"")||27))}function ut(t,n,e){return!t||!e||n>t.length?t:t.substring(0,n)+ut(t.substring(n+1),e,e)}function ot(t){var n=arguments.length>1&&void 0!==arguments[1]?arguments[1]:27;return!t||t%n?t%n:ot(t/n,n)}function at(t,n,e){if(t&&t.length){var r=it(e),i=it(n),u=ot(r)+5,o=ut(t,ot(r,5),u);return o=o.replace(/\x7c$/g,"==").replace(/\x2f$/g,"="),o=function(t,n,e){var r=+("0x"+t.substring(0,4));t=t.substring(4);for(var i=n%r+e%27,u=[],o=0;o<t.length;o+=2)if("|"!==t[o]){var a=+("0x"+t[o]+t[o+1])-i;u.push(a)}else{var l=+("0x"+t.substring(o+1,o+1+4))-i;o+=3,u.push(l)}return String.fromCharCode.apply(String,u)}(o=(o=atob(o)).replace(/[\x41-\x5A]/g,""),i,r),o=JSON.parse(o)}}var lt=[{key:"alternate",def:!1},{key:"fill",def:1},{key:"iterations",def:0},{key:"direction",def:1},{key:"speed",def:1},{key:"fps",def:100}],st=function(){function t(n,e){var i=this,u=arguments.length>2&&void 0!==arguments[2]?arguments[2]:null;r(this,t),this._id=0,this._running=!1,this._rollingBack=!1,this._animations=n,this._settings=e,(!u||u<"2022-05-02")&&delete this._settings.speed,lt.forEach((function(t){i._settings[t.key]=i._settings[t.key]||t.def})),this.duration=e.duration,this.offset=e.offset||0,this.rollbackStartOffset=0}return u(t,[{key:"alternate",get:function(){return this._settings.alternate}},{key:"fill",get:function(){return this._settings.fill}},{key:"iterations",get:function(){return this._settings.iterations}},{key:"direction",get:function(){return this._settings.direction}},{key:"speed",get:function(){return this._settings.speed}},{key:"fps",get:function(){return this._settings.fps}},{key:"maxFiniteDuration",get:function(){return this.iterations>0?this.iterations*this.duration:this.duration}},{key:"_apply",value:function(t){for(var n=arguments.length>1&&void 0!==arguments[1]?arguments[1]:{},e=this._animations,r=e.length,i=0,u=0;u<r;u++)n[u]?i++:(n[u]=e[u](t,1),n[u]&&i++);return i}},{key:"_rollback",value:function(t){var n=this,e=1/0,r=null;this.rollbackStartOffset=t,this._rollingBack=!0,this._running=!0;this._id=window.requestAnimationFrame((function i(u){if(n._rollingBack){null==r&&(r=u);var o=Math.round(t-(u-r)*n.speed);if(o>n.duration&&e!==1/0){var a=!!n.alternate&&o/n.duration%2>1,l=o%n.duration;o=(l+=a?n.duration:0)||n.duration}var s=(n.fps?1e3/n.fps:0)*n.speed,f=Math.max(0,o);f<e-s&&(n.offset=f,e=f,n._apply(f));var c=n.iterations>0&&-1===n.fill&&o>=n.maxFiniteDuration;(o<=0||n.offset<o||c)&&n.stop(),n._id=window.requestAnimationFrame(i)}}))}},{key:"_start",value:function(){var t=this,n=arguments.length>0&&void 0!==arguments[0]?arguments[0]:0,e=-1/0,r=null,i={};this._running=!0;var u=function u(o){null==r&&(r=o);var a=Math.round((o-r)*t.speed+n),l=(t.fps?1e3/t.fps:0)*t.speed;if(a>e+l&&!t._rollingBack&&(t.offset=a,e=a,t._apply(a,i)===t._animations.length))return void t.pause(!0);t._id=window.requestAnimationFrame(u)};this._id=window.requestAnimationFrame(u)}},{key:"_pause",value:function(){this._id&&window.cancelAnimationFrame(this._id),this._running=!1}},{key:"play",value:function(){if(!this._running)return this._rollingBack?this._rollback(this.offset):this._start(this.offset)}},{key:"stop",value:function(){this._pause(),this.offset=0,this.rollbackStartOffset=0,this._rollingBack=!1,this._apply(0)}},{key:"reachedToEnd",value:function(){return this.iterations>0&&this.offset>=this.iterations*this.duration}},{key:"restart",value:function(){var t=arguments.length>0&&void 0!==arguments[0]&&arguments[0];this.stop(t),this.play(t)}},{key:"pause",value:function(){this._pause()}},{key:"reverse",value:function(){this.direction=-this.direction}}],[{key:"build",value:function(t,n){delete t.animationSettings,t.options=at(t.options,t.root,"5c7f360c"),t.animations.map((function(n){n.settings=at(n.s,t.root,"5c7f360c"),delete n.s,t.animationSettings||(t.animationSettings=n.settings)}));var e=t.version;if(!(t=rt(t,n)))return null;var r=t.options||{},i=new this(t.animations,t.animationSettings,e);return{el:t.svg,options:r,player:i}}},{key:"push",value:function(t){return this.build(t)}},{key:"init",value:function(){var t=this,n=window.__SVGATOR_PLAYER__&&window.__SVGATOR_PLAYER__["5c7f360c"];Array.isArray(n)&&n.splice(0).forEach((function(n){return t.build(n)}))}}]),t}();function ft(t){return d(t)+""}function ct(t){var n=arguments.length>1&&void 0!==arguments[1]?arguments[1]:" ";return t&&t.length?t.map(ft).join(n):""}function ht(t){if(!t)return"transparent";if(null==t.a||t.a>=1){var n=function(t){return 1===(t=parseInt(t).toString(16)).length?"0"+t:t},e=function(t){return t.charAt(0)===t.charAt(1)},r=n(t.r),i=n(t.g),u=n(t.b);return e(r)&&e(i)&&e(u)&&(r=r.charAt(0),i=i.charAt(0),u=u.charAt(0)),"#"+r+i+u}return"rgba("+t.r+","+t.g+","+t.b+","+t.a+")"}function vt(t){return t?"url(#"+t+")":"none"}!function(){for(var t=0,n=["ms","moz","webkit","o"],e=0;e<n.length&&!window.requestAnimationFrame;++e)window.requestAnimationFrame=window[n[e]+"RequestAnimationFrame"],window.cancelAnimationFrame=window[n[e]+"CancelAnimationFrame"]||window[n[e]+"CancelRequestAnimationFrame"];window.requestAnimationFrame||(window.requestAnimationFrame=function(n){var e=Date.now(),r=Math.max(0,16-(e-t)),i=window.setTimeout((function(){n(e+r)}),r);return t=e+r,i},window.cancelAnimationFrame=window.clearTimeout)}();var yt={f:null,i:function(t,n,e){return 0===t?n:1===t?e:{x:B(t,n.x,e.x),y:B(t,n.y,e.y)}},u:function(t,n){return function(e){var r=n(e);t.setAttribute("rx",ft(r.x)),t.setAttribute("ry",ft(r.y))}}},gt={f:null,i:function(t,n,e){return 0===t?n:1===t?e:{width:B(t,n.width,e.width),height:B(t,n.height,e.height)}},u:function(t,n){return function(e){var r=n(e);t.setAttribute("width",ft(r.width)),t.setAttribute("height",ft(r.height))}}};Object.freeze({M:2,L:2,Z:0,H:1,V:1,C:6,Q:4,T:2,S:4,A:7});var dt={},pt=null;function mt(t){var n=function(){if(pt)return pt;if("object"!==("undefined"==typeof document?"undefined":e(document))||!document.createElementNS)return{};var t=document.createElementNS("http://www.w3.org/2000/svg","svg");return t&&t.style?(t.style.position="absolute",t.style.opacity="0.01",t.style.zIndex="-9999",t.style.left="-9999px",t.style.width="1px",t.style.height="1px",pt={svg:t}):{}}().svg;if(!n)return function(t){return null};var r=document.createElementNS(n.namespaceURI,"path");r.setAttributeNS(null,"d",t),r.setAttributeNS(null,"fill","none"),r.setAttributeNS(null,"stroke","none"),n.appendChild(r);var i=r.getTotalLength();return function(t){var n=r.getPointAtLength(i*t);return{x:n.x,y:n.y}}}function bt(t){return dt[t]?dt[t]:dt[t]=mt(t)}function wt(t,n,e,r){if(!t||!r)return!1;var i=["M",t.x,t.y];if(n&&e&&(i.push("C"),i.push(n.x),i.push(n.y),i.push(e.x),i.push(e.y)),n?!e:e){var u=n||e;i.push("Q"),i.push(u.x),i.push(u.y)}return n||e||i.push("L"),i.push(r.x),i.push(r.y),i.join(" ")}function xt(t,n,e,r){var i=arguments.length>4&&void 0!==arguments[4]?arguments[4]:1,u=wt(t,n,e,r),o=bt(u);try{return o(i)}catch(t){return null}}function At(t,n,e){return t+(n-t)*e}function kt(t,n,e){var r=arguments.length>3&&void 0!==arguments[3]&&arguments[3],i={x:At(t.x,n.x,e),y:At(t.y,n.y,e)};return r&&(i.a=_t(t,n)),i}function _t(t,n){return Math.atan2(n.y-t.y,n.x-t.x)}function St(t,n,e,r){var i=1-r;return i*i*t+2*i*r*n+r*r*e}function Ot(t,n,e,r){return 2*(1-r)*(n-t)+2*r*(e-n)}function jt(t,n,e,r){var i=arguments.length>4&&void 0!==arguments[4]&&arguments[4],u=xt(t,n,null,e,r);return u||(u={x:St(t.x,n.x,e.x,r),y:St(t.y,n.y,e.y,r)}),i&&(u.a=Mt(t,n,e,r)),u}function Mt(t,n,e,r){return Math.atan2(Ot(t.y,n.y,e.y,r),Ot(t.x,n.x,e.x,r))}function Pt(t,n,e,r,i){var u=i*i;return i*u*(r-t+3*(n-e))+3*u*(t+e-2*n)+3*i*(n-t)+t}function Et(t,n,e,r,i){var u=1-i;return 3*(u*u*(n-t)+2*u*i*(e-n)+i*i*(r-e))}function It(t,n,e,r,i){var u=arguments.length>5&&void 0!==arguments[5]&&arguments[5],o=xt(t,n,e,r,i);return o||(o={x:Pt(t.x,n.x,e.x,r.x,i),y:Pt(t.y,n.y,e.y,r.y,i)}),u&&(o.a=Rt(t,n,e,r,i)),o}function Rt(t,n,e,r,i){return Math.atan2(Et(t.y,n.y,e.y,r.y,i),Et(t.x,n.x,e.x,r.x,i))}function Ft(t,n,e){var r=arguments.length>3&&void 0!==arguments[3]&&arguments[3];if(Tt(n)){if(qt(e))return jt(n,e.start,e,t,r)}else if(Tt(e)){if(Bt(n))return jt(n,n.end,e,t,r)}else{if(Bt(n))return qt(e)?It(n,n.end,e.start,e,t,r):jt(n,n.end,e,t,r);if(qt(e))return jt(n,e.start,e,t,r)}return kt(n,e,t,r)}function Nt(t,n,e){var r=Ft(t,n,e,!0);return r.a=function(t){return arguments.length>1&&void 0!==arguments[1]&&arguments[1]?t+Math.PI:t}(r.a)/m,r}function Tt(t){return!t.type||"corner"===t.type}function qt(t){return null!=t.start&&!Tt(t)}function Bt(t){return null!=t.end&&!Tt(t)}var Lt=new N;var Ct={f:ft,i:q},Dt={f:ft,i:L};function zt(t,n,e){return t.map((function(t){return function(t,n,e){var r=t.v;if(!r||"g"!==r.t||r.s||!r.v||!r.r)return t;var i=e.getElementById(r.r),u=i&&i.querySelectorAll("stop")||[];return r.s=r.v.map((function(t,n){var e=u[n]&&u[n].getAttribute("offset");return{c:t,o:e=d(parseInt(e)/100)}})),delete r.v,t}(t,0,e)}))}var Vt={gt:"gradientTransform",c:{x:"cx",y:"cy"},rd:"r",f:{x:"x1",y:"y1"},to:{x:"x2",y:"y2"}};function Gt(t,n,r,i,u,o,a,l){return zt(t,0,l),n=function(t,n,e){for(var r,i,u,o=t.length-1,a={},l=0;l<=o;l++)(r=t[l]).e&&(r.e=n(r.e)),r.v&&"g"===(i=r.v).t&&i.r&&(u=e.getElementById(i.r))&&(a[i.r]={e:u,s:u.querySelectorAll("stop")});return a}(t,i,l),function(i){var u=r(i,t,Yt);if(!u)return"none";if("c"===u.t)return ht(u.v);if("g"===u.t){if(!n[u.r])return vt(u.r);var o=n[u.r];return function(t,n){for(var e=t.s,r=e.length;r<n.length;r++){var i=e[e.length-1].cloneNode();i.id=Qt(i.id),t.e.appendChild(i),e=t.s=t.e.querySelectorAll("stop")}for(var u=0,o=e.length,a=n.length-1;u<o;u++)e[u].setAttribute("stop-color",ht(n[Math.min(u,a)].c)),e[u].setAttribute("offset",n[Math.min(u,a)].o)}(o,u.s),Object.keys(Vt).forEach((function(t){if(void 0!==u[t])if("object"!==e(Vt[t])){var n,r="gt"===t?(n=u[t],Array.isArray(n)?"matrix("+n.join(" ")+")":""):u[t],i=Vt[t];o.e.setAttribute(i,r)}else Object.keys(Vt[t]).forEach((function(n){if(void 0!==u[t][n]){var e=u[t][n],r=Vt[t][n];o.e.setAttribute(r,e)}}))})),vt(u.r)}return"none"}}function Yt(t,e,r){if(0===t)return e;if(1===t)return r;if(e&&r){var i=e.t;if(i===r.t)switch(e.t){case"c":return{t:i,v:z(t,e.v,r.v)};case"g":if(e.r===r.r){var u={t:i,s:$t(t,e.s,r.s),r:e.r};return e.gt&&r.gt&&(u.gt=function(t,n,e){var r=n.length;if(r!==e.length)return T(t,n,e);for(var i=new Array(r),u=0;u<r;u++)i[u]=q(t,n[u],e[u]);return i}(t,e.gt,r.gt)),e.c?(u.c=C(t,e.c,r.c),u.rd=B(t,e.rd,r.rd)):e.f&&(u.f=C(t,e.f,r.f),u.to=C(t,e.to,r.to)),u}}if("c"===e.t&&"g"===r.t||"c"===r.t&&"g"===e.t){var o="c"===e.t?e:r,a="g"===e.t?n({},e):n({},r),l=a.s.map((function(t){return{c:o.v,o:t.o}}));return a.s="c"===e.t?$t(t,l,a.s):$t(t,a.s,l),a}}return T(t,e,r)}function $t(t,n,e){if(n.length===e.length)return n.map((function(n,r){return Ut(t,n,e[r])}));for(var r=Math.max(n.length,e.length),i=[],u=0;u<r;u++){var o=Ut(t,n[Math.min(u,n.length-1)],e[Math.min(u,e.length-1)]);i.push(o)}return i}function Ut(t,n,e){return{o:L(t,n.o,e.o||0),c:z(t,n.c,e.c||{})}}function Qt(t){return t.replace(/-fill-([0-9]+)$/,(function(t,n){return"-fill-"+(+n+1)}))}var Ht={fill:Gt,"fill-opacity":Dt,stroke:Gt,"stroke-opacity":Dt,"stroke-width":Ct,"stroke-dashoffset":{f:ft,i:q},"stroke-dasharray":{f:function(t){var n=arguments.length>1&&void 0!==arguments[1]?arguments[1]:" ";return t&&t.length>0&&(t=t.map((function(t){return d(t,4)}))),ct(t,n)},i:function(t,n,e){var r,i,u,o=n.length,a=e.length;if(o!==a)if(0===o)n=V(o=a,0);else if(0===a)a=o,e=V(o,0);else{var l=(u=(r=o)*(i=a)/function(t,n){for(var e;n;)e=n,n=t%n,t=e;return t||1}(r,i))<0?-u:u;n=G(n,Math.floor(l/o)),e=G(e,Math.floor(l/a)),o=a=l}for(var s=[],f=0;f<o;f++)s.push(d(B(t,n[f],e[f])));return s}},opacity:Dt,transform:function(t,n,r,i){if(!(t=function(t,n){if(!t||"object"!==e(t))return null;var r=!1;for(var i in t)t.hasOwnProperty(i)&&(t[i]&&t[i].length?(t[i].forEach((function(t){t.e&&(t.e=n(t.e))})),r=!0):delete t[i]);return r?t:null}(t,i)))return null;var u=function(e,i,u){var o=arguments.length>3&&void 0!==arguments[3]?arguments[3]:null;return t[e]?r(i,t[e],u):n&&n[e]?n[e]:o};return n&&n.a&&t.o?function(n){var e=r(n,t.o,Nt);return Lt.recomposeSelf(e,u("r",n,q,0)+e.a,u("k",n,C),u("s",n,C),u("t",n,C)).toString()}:function(t){return Lt.recomposeSelf(u("o",t,Ft,null),u("r",t,q,0),u("k",t,C),u("s",t,C),u("t",t,C)).toString()}},r:Ct,"#size":gt,"#radius":yt,_:function(t,n){if(Array.isArray(t))for(var e=0;e<t.length;e++)this[t[e]]=n;else this[t]=n}},Jt=function(t){!function(t,n){if("function"!=typeof n&&null!==n)throw new TypeError("Super expression must either be null or a function");t.prototype=Object.create(n&&n.prototype,{constructor:{value:t,writable:!0,configurable:!0}}),n&&l(t,n)}(o,t);var n,e,i=(n=o,e=s(),function(){var t,r=a(n);if(e){var i=a(this).constructor;t=Reflect.construct(r,arguments,i)}else t=r.apply(this,arguments);return c(this,t)});function o(){return r(this,o),i.apply(this,arguments)}return u(o,null,[{key:"build",value:function(t){var n=h(a(o),"build",this).call(this,t,Ht);if(!n)return null;n.el,n.options,function(t,n,e){t.play()}(n.player)}}]),o}(st);return Jt.init(),Jt}));
(function(s,i,o,w,a,b){w[o]=w[o]||{};w[o][s]=w[o][s]||[];w[o][s].push(i);})('5c7f360c',{"root":"eTnte7LJ4qW1","version":"2022-05-04","animations":[{"elements":{"eTnte7LJ4qW3":{"transform":{"data":{"o":{"x":379.721774,"y":519.094469,"type":"corner"},"t":{"x":-345.467316,"y":-533.567688}},"keys":{"r":[{"t":0,"v":0},{"t":1500,"v":-15.461229},{"t":3000,"v":0}]}}},"eTnte7LJ4qW36":{"transform":{"data":{"o":{"x":200.66,"y":312.438344,"type":"corner"},"t":{"x":-200.659999,"y":-312.438344}},"keys":{"r":[{"t":0,"v":9.52321},{"t":1500,"v":-7.725157},{"t":3000,"v":9.52}]}}}},"s":"MXDA1M2IzNWE5Y2FkS2UFhOTlhY2ExYTdhNjVGhNzI2YjY4NjhBNjg2ONDVhOWNhMWFhOWQ5YLmFjYTFhN2E2NWE3MlPg2OTY0NWFhMWFjOWRIhYTk5YWNhMWE3YTZFVYWI1YTcyNjg2NDVhOXWVhMWE0YTQ1YTcyNjHk2NDVhOTlMYTRhYzlIkYWFhNlU5OWFjOWRDPNWE3MjllOTlKYTRhYIjlkNjQ1YUxhYmE4OWBRQOWRNOWM1YTcyNjlXiNQ|"}],"options":"MUDAxMDg4MmY4MDgxNmAU3ZjgxMmY0NzJmNzkV3YzZlNzEyZlY4YQ|"},'__SVGATOR_PLAYER__',window)]]></script></svg>